<?xml version="1.0" encoding="UTF-8"?>
<svg id="Layer_2" data-name="Layer 2" xmlns="http://www.w3.org/2000/svg" viewBox="0 0 629.79 634.79">
  <defs>
    <style>
      .cls-1 {
        fill: #500000;
      }

      .cls-2 {
        fill: #fff;
      }

      .cls-3 {
        fill: #b1b3b6;
      }
    </style>
  </defs>
  <g id="Layer_1-2" data-name="Layer 1">
    <g>
      <rect class="cls-1" width="629.79" height="634.79"/>
      <polygon class="cls-2" points="546.16 252.65 499.39 252.65 496.69 252.65 495.47 255.1 461.56 325.7 427.52 255.06 426.33 252.65 423.64 252.65 378.43 252.65 374.16 252.65 374.16 256.95 374.16 281.02 374.16 285.33 378.43 285.33 386.16 285.33 386.16 386.44 377.8 386.44 373.5 386.44 373.5 390.75 373.5 414.82 373.5 419.12 377.8 419.12 428.57 419.12 432.87 419.12 432.87 414.82 432.87 390.75 432.87 386.44 428.57 386.44 419.79 386.44 419.79 314.68 457.71 392.88 461.56 400.86 465.48 392.88 503.79 314.51 503.79 386.44 495.43 386.44 491.09 386.44 491.09 390.75 491.09 414.82 491.09 419.12 495.43 419.12 546.16 419.12 550.47 419.12 550.47 414.82 550.47 390.75 550.47 386.44 546.16 386.44 537.42 386.44 537.42 285.33 546.16 285.33 550.47 285.33 550.47 281.02 550.47 256.95 550.47 252.65 546.16 252.65"/>
      <path class="cls-2" d="M251.32,386.34h-13.51l-43.95-101.47h8.47v-32.82h-70.54v32.71h9.73l-43.91,101.47h-18.3v32.71h64.03v-32.71h-9.31l7.31-16.9h52.83l7.28,16.9h-9.83v32.71h64.06v-32.71l-4.37.11ZM180.01,336.76h-24.49l12.25-28.38,12.25,28.38Z"/>
      <polygon class="cls-2" points="492.42 125.68 136.21 125.68 131.28 125.68 131.28 130.61 131.28 225.78 131.28 230.71 136.21 230.71 197.72 230.71 202.65 230.71 202.65 225.78 202.65 190.44 278.65 190.44 278.65 441.2 243.27 441.2 238.37 441.2 238.37 446.13 238.37 507.64 238.37 512.58 243.27 512.58 385.32 512.58 390.26 512.58 390.26 507.64 390.26 446.13 390.26 441.2 385.32 441.2 350.02 441.2 350.02 190.44 425.56 190.44 425.56 225.32 425.56 230.26 430.49 230.26 492.42 230.26 497.36 230.26 497.36 225.32 497.36 130.61 497.36 125.68 492.42 125.68"/>
      <polygon class="cls-3" points="360.55 470.49 375.6 454.99 375.6 497.46 360.55 483.08 360.55 470.49"/>
      <polygon class="cls-3" points="335.5 456.11 320.42 470.94 320.42 160.88 335.5 175.89 335.5 456.11"/>
      <polygon class="cls-3" points="161.44 155.42 145.97 140.37 475.17 140.37 455.72 155.42 161.44 155.42"/>
      <polygon class="cls-3" points="483.15 216.47 468.11 202.09 468.11 163.81 483.15 148.35 483.15 216.47"/>
    </g>
  </g>
</svg>